<svg xmlns="http://www.w3.org/2000/svg" viewBox="0 0 235 35.51"><defs><style>.cls-1{fill:#3c6d7a}</style></defs><g id="レイヤー_2" data-name="レイヤー 2"><g id="レイヤー_1-2" data-name="レイヤー 1"><path class="cls-1" d="M118 25.27a1.16 1.16 0 0 1-1.21-.83l-3.33-8-3.36 8a1.32 1.32 0 0 1-2.46 0l-4.44-12.68a1.58 1.58 0 0 1-.12-.57c0-.28.12-.93 1.19-.93h.73a1.33 1.33 0 0 1 1.47 1.07l2.6 7.67 3.37-8a1.09 1.09 0 0 1 2 0l3.37 8.1 2.63-7.73a1.33 1.33 0 0 1 1.47-1h.61c1.08 0 1.19.65 1.19.93a1.77 1.77 0 0 1-.12.59l-4.4 12.61a1.15 1.15 0 0 1-1.21.88z"/><rect class="cls-1" x="130.94" y="10.26" width="3.17" height="15" rx="1.31" ry="1.31"/><path class="cls-1" d="M144.16 25.27a1.14 1.14 0 0 1-1.31-1.27V11.57a1.14 1.14 0 0 1 1.31-1.31h.56a1.14 1.14 0 0 1 1.28 1.31v10.66h4.5a1.14 1.14 0 0 1 1.31 1.31V24a1.14 1.14 0 0 1-1.31 1.31zm15.93 0a1.14 1.14 0 0 1-1.31-1.27V11.57a1.14 1.14 0 0 1 1.31-1.31h.56a1.14 1.14 0 0 1 1.35 1.31v10.66h4.5a1.14 1.14 0 0 1 1.31 1.31V24a1.14 1.14 0 0 1-1.31 1.31z"/><rect class="cls-1" x="175.15" y="10.26" width="3.17" height="15" rx="1.31" ry="1.31"/><path class="cls-1" d="M198.38 25.27a1.09 1.09 0 0 1-.91-.43l-7.28-8.18V24a1.14 1.14 0 0 1-1.3 1.31h-.52a1.14 1.14 0 0 1-1.31-1.31V11.29a1 1 0 0 1 1.07-1 1.23 1.23 0 0 1 1.07.51l7 7.93v-7.16a1.14 1.14 0 0 1 1.31-1.31h.49a1.14 1.14 0 0 1 1.31 1.31V24.3a.92.92 0 0 1-.93.97zm15.1.11c-4.7 0-7.62-2.81-7.62-7.34 0-4.72 3.31-7.9 8.24-7.9a9.73 9.73 0 0 1 2.62.33 1.3 1.3 0 0 1 1.07 1.44v.58c0 1.09-.67 1.21-1 1.21a1.82 1.82 0 0 1-.52-.1 7.92 7.92 0 0 0-2.24-.32c-3.11 0-5 1.78-5 4.76 0 3.77 2.85 4.33 4.55 4.33a6.26 6.26 0 0 0 1.54-.18v-3.07a1.14 1.14 0 0 1 1.31-1.31h.57a1.14 1.14 0 0 1 1.31 1.31v4.18a1.34 1.34 0 0 1-1 1.45 12.46 12.46 0 0 1-3.83.63zm16.03 0a8.25 8.25 0 0 1-3.77-.88 1.43 1.43 0 0 1-.86-1.46v-.66c0-1 .62-1.11.89-1.11a1.11 1.11 0 0 1 .65.24 6.31 6.31 0 0 0 3 .86c.91 0 2.44-.18 2.44-1.38 0-.82-.78-1.3-2.42-2l-.16-.08c-1.86-.81-4.18-1.83-4.18-4.52s2-4.28 5.49-4.28a8.15 8.15 0 0 1 2.83.49 1.32 1.32 0 0 1 1 1.44v.62c0 1.06-.68 1.14-.89 1.14a1.53 1.53 0 0 1-.62-.15 6.66 6.66 0 0 0-2.31-.44c-1 0-2.27.21-2.27 1.2 0 .66.88 1.09 2.32 1.72l.14.06C232.53 17 235 18 235 20.93s-2 4.45-5.49 4.45z"/><rect class="cls-1" x="31.84" width="13.23" height="35.51" rx="1.34" ry="1.34"/><rect class="cls-1" width="13.23" height="35.51" rx="1.34" ry="1.34"/><path d="M78.17 7.54l-7-7a1.82 1.82 0 0 0-2.59 0l-6.67 6.67a1.84 1.84 0 0 0 0 2.59l8 8-8 8a1.84 1.84 0 0 0 0 2.59L68.58 35a1.84 1.84 0 0 0 2.59 0l7-7 8.92-8.92a1.84 1.84 0 0 0 0-2.59z" fill="#e72a10"/></g></g></svg>