<svg xmlns="http://www.w3.org/2000/svg" viewBox="0 0 120 74.29"><defs><style>.cls-1{fill:#3c6d7a}</style></defs><g id="レイヤー_2" data-name="レイヤー 2"><g id="レイヤー_1-2" data-name="レイヤー 1"><path class="cls-1" d="M13.1 74.18a1 1 0 0 1-1.1-.73l-2.94-7-3 7a1 1 0 0 1-1.07.72 1 1 0 0 1-.99-.75L.1 62.29a1.44 1.44 0 0 1-.1-.51c0-.24.1-.78 1.05-.78h.65a1.17 1.17 0 0 1 1.3.9l2.28 6.73 3-7.07a1 1 0 0 1 .85-.56.94.94 0 0 1 .88.59l3 7.13 2.31-6.81a1.18 1.18 0 0 1 1.3-.91h.54c.95 0 1.05.57 1.05.81a1.35 1.35 0 0 1-.11.52l-3.9 11.08a1 1 0 0 1-1.07.77z"/><rect class="cls-1" x="24.54" y="60.97" width="2.8" height="13.22" rx="1.15" ry="1.15"/><path class="cls-1" d="M36.18 74.18A1 1 0 0 1 35 73V62.12A1 1 0 0 1 36.18 61h.49c.79 0 1.16.36 1.16 1.15v9.39h4A1 1 0 0 1 43 72.66V73a1 1 0 0 1-1.15 1.15zm14.04 0c-.79 0-1.16-.36-1.16-1.15V62.12c0-.79.37-1.15 1.16-1.15h.49a1 1 0 0 1 1.15 1.15v9.39h4A1 1 0 0 1 57 72.66V73a1 1 0 0 1-1.15 1.15z"/><rect class="cls-1" x="63.48" y="60.97" width="2.8" height="13.22" rx="1.15" ry="1.15"/><path class="cls-1" d="M84 74.18a1 1 0 0 1-.81-.37l-6.46-7.21V73a1 1 0 0 1-1.15 1.15h-.45c-.79 0-1.16-.36-1.16-1.15V61.87a.85.85 0 0 1 1-.9 1.09 1.09 0 0 1 .94.44l6.17 7v-6.29a1 1 0 0 1 1.1-1.12h.45c.79 0 1.16.36 1.16 1.15v11.18a.8.8 0 0 1-.79.85zm13.25.11c-4.14 0-6.72-2.48-6.72-6.47 0-4.16 2.92-7 7.26-7a8.74 8.74 0 0 1 2.31.29 1.15 1.15 0 0 1 1 1.27v.5c0 1-.6 1.07-.86 1.07a1.38 1.38 0 0 1-.46-.09 7.17 7.17 0 0 0-2-.28c-2.73 0-4.37 1.57-4.37 4.2 0 3.32 2.51 3.81 4 3.81a5.26 5.26 0 0 0 1.35-.16v-2.7c0-.79.36-1.16 1.15-1.16h.46a1 1 0 0 1 1.15 1.16v3.68a1.18 1.18 0 0 1-.91 1.28 11.08 11.08 0 0 1-3.36.6zm14.12 0a7.2 7.2 0 0 1-3.32-.78 1.27 1.27 0 0 1-.76-1.29v-.58c0-.88.54-1 .78-1a1 1 0 0 1 .58.2 5.51 5.51 0 0 0 2.59.76c.81 0 2.15-.16 2.15-1.21 0-.73-.69-1.15-2.13-1.76l-.14-.06c-1.64-.72-3.68-1.62-3.68-4s1.77-3.77 4.84-3.77a7.22 7.22 0 0 1 2.49.43 1.17 1.17 0 0 1 .87 1.27v.54c0 .94-.6 1-.78 1a1.48 1.48 0 0 1-.55-.13 5.74 5.74 0 0 0-2-.39c-.92 0-2 .18-2 1.06 0 .58.78 1 2 1.51h.12c1.59.68 3.76 1.61 3.76 4.17s-1.79 4.03-4.82 4.03z"/><rect class="cls-1" x="43.7" width="18.09" height="48.57" rx="2.51" ry="2.51"/><rect class="cls-1" x=".14" width="18.09" height="48.57" rx="2.51" ry="2.51"/><path d="M107.07 10.32L97.49.74a2.5 2.5 0 0 0-3.49 0l-9.17 9.12a2.5 2.5 0 0 0 0 3.54l10.88 10.89-10.88 10.88a2.5 2.5 0 0 0 0 3.54L94 47.83a2.5 2.5 0 0 0 3.54 0l9.58-9.58 12.2-12.19a2.53 2.53 0 0 0 0-3.55z" fill="#e72a10"/></g></g></svg>