<svg width="24" height="25" viewBox="0 0 24 25" fill="none" xmlns="http://www.w3.org/2000/svg">
<g clip-path="url(#clip0_67_621)">
<path fill-rule="evenodd" clip-rule="evenodd" d="M12 14.1803L17.303 19.4906C17.5844 19.7723 17.966 19.9306 18.364 19.9306C18.762 19.9306 19.1436 19.7723 19.425 19.4906C19.7064 19.2089 19.8645 18.8268 19.8645 18.4283C19.8645 18.0299 19.7064 17.6478 19.425 17.3661L14.12 12.0568L19.424 6.74753C19.5633 6.60803 19.6737 6.44243 19.7491 6.2602C19.8244 6.07796 19.8632 5.88265 19.8631 5.68542C19.8631 5.48818 19.8242 5.29289 19.7488 5.11069C19.6734 4.92849 19.5628 4.76295 19.4235 4.62352C19.2842 4.48408 19.1188 4.37349 18.9367 4.29806C18.7547 4.22262 18.5596 4.18382 18.3626 4.18387C18.1656 4.18392 17.9706 4.22281 17.7886 4.29833C17.6066 4.37385 17.4413 4.48452 17.302 4.62402L12 9.93329L6.697 4.62402C6.5587 4.48052 6.39323 4.36603 6.21027 4.28724C6.0273 4.20845 5.83049 4.16693 5.63132 4.1651C5.43215 4.16328 5.23462 4.20118 5.05024 4.2766C4.86586 4.35203 4.69833 4.46346 4.55742 4.6044C4.41652 4.74534 4.30506 4.91296 4.22955 5.09749C4.15404 5.28201 4.116 5.47975 4.11763 5.67915C4.11927 5.87856 4.16056 6.07564 4.23908 6.2589C4.31761 6.44216 4.4318 6.60792 4.575 6.74653L9.88 12.0568L4.576 17.3661C4.29461 17.6478 4.13652 18.0299 4.13652 18.4283C4.13652 18.8268 4.29461 19.2089 4.576 19.4906C4.8574 19.7723 5.23905 19.9306 5.637 19.9306C6.03495 19.9306 6.41661 19.7723 6.698 19.4906L12 14.1793V14.1803Z" fill="#052E58"/>
</g>
<defs>
<clipPath id="clip0_67_621">
<rect width="24" height="24.0284" fill="white" transform="translate(0 0.0429688)"/>
</clipPath>
</defs>
</svg>
