<svg width="19" height="19" viewBox="0 0 19 19" fill="none" xmlns="http://www.w3.org/2000/svg">
<g clip-path="url(#clip0_121_319)">
<path fill-rule="evenodd" clip-rule="evenodd" d="M10.3074 10.3077L14.493 10.3081C14.715 10.3081 14.928 10.2198 15.0851 10.0628C15.2421 9.90577 15.3303 9.69279 15.3303 9.47071C15.3303 9.24863 15.2421 9.03565 15.0851 8.87862C14.928 8.72158 14.715 8.63336 14.493 8.63336L10.307 8.63415L10.3074 4.44861C10.3074 4.33868 10.2857 4.22982 10.2436 4.12826C10.2015 4.02671 10.1398 3.93443 10.0621 3.85672C9.98434 3.779 9.89204 3.71736 9.79046 3.67531C9.68888 3.63326 9.58002 3.61164 9.47008 3.61166C9.36014 3.61169 9.25129 3.63337 9.14973 3.67546C9.04817 3.71755 8.9559 3.77924 8.87818 3.857C8.80047 3.93475 8.73882 4.02705 8.69678 4.12863C8.65473 4.23021 8.6331 4.33907 8.63313 4.44901L8.63352 8.63376L4.44838 8.63376C4.33724 8.63178 4.22683 8.65195 4.12357 8.69309C4.02032 8.73424 3.92629 8.79553 3.84698 8.8734C3.76767 8.95128 3.70466 9.04416 3.66163 9.14665C3.6186 9.24913 3.59641 9.35916 3.59636 9.47031C3.59631 9.58146 3.61839 9.69151 3.66133 9.79403C3.70426 9.89655 3.76718 9.9895 3.84642 10.0674C3.92566 10.1454 4.01963 10.2068 4.12284 10.248C4.22606 10.2893 4.33645 10.3095 4.44759 10.3077L8.63392 10.3073L8.63352 14.4928C8.63352 14.7149 8.72174 14.9279 8.87878 15.0849C9.03581 15.2419 9.24879 15.3302 9.47087 15.3302C9.69295 15.3302 9.90593 15.2419 10.063 15.0849C10.22 14.9279 10.3082 14.7149 10.3082 14.4928L10.307 10.3073L10.3074 10.3077Z" fill="white"/>
</g>
<defs>
<clipPath id="clip0_121_319">
<rect width="13.3932" height="13.3932" fill="white" transform="translate(0 9.4707) rotate(-45)"/>
</clipPath>
</defs>
</svg>
