<svg xmlns="http://www.w3.org/2000/svg" viewBox="0 0 146 66.43"><defs><style>.cls-1{fill:#595757}.cls-3{fill:#f3981c}</style></defs><g id="レイヤー_2" data-name="レイヤー 2"><g id="レイヤー_1-2" data-name="レイヤー 1"><path class="cls-1" d="M84.54 18.62a8.35 8.35 0 0 0 .1 1.48 2.37 2.37 0 0 0 .36.9 1.5 1.5 0 0 0 .58.51 5.1 5.1 0 0 0 1.13.35v.77h-6.96v-.77a3.2 3.2 0 0 0 1.31-.56 1.5 1.5 0 0 0 .43-.87 10.55 10.55 0 0 0 .1-1.73V7.06a10.06 10.06 0 0 0-.08-1.58 1.92 1.92 0 0 0-.26-.77 1.3 1.3 0 0 0-.48-.45 5.64 5.64 0 0 0-1-.37v-.77h7.81q3.69 0 5.49 1.41a5.11 5.11 0 0 1 1.8 4.29 7.46 7.46 0 0 1-.56 2.95 5.51 5.51 0 0 1-1.61 2.14 6.29 6.29 0 0 1-2.46 1.2 12 12 0 0 1-3 .36c-1.17 0-2.07 0-2.71-.06zm0-4.52h1.82a7.74 7.74 0 0 0 2.94-.47 3.42 3.42 0 0 0 1.77-1.54 5.75 5.75 0 0 0 .62-2.86A6.19 6.19 0 0 0 91.33 7a3.79 3.79 0 0 0-1-1.45 3.73 3.73 0 0 0-1.52-.78 7.8 7.8 0 0 0-1.93-.23q-1.56 0-2.34.06zm18.85 4.57a13.52 13.52 0 0 0 .07 1.54 2.19 2.19 0 0 0 .24.77 1.24 1.24 0 0 0 .49.47 3.87 3.87 0 0 0 1 .38v.77h-6.6v-.77a3.2 3.2 0 0 0 1.31-.56 1.5 1.5 0 0 0 .43-.87 10.55 10.55 0 0 0 .1-1.73V7.06a10.06 10.06 0 0 0-.08-1.58 1.92 1.92 0 0 0-.26-.77 1.3 1.3 0 0 0-.48-.45 5.64 5.64 0 0 0-1-.37v-.77h6.65v.77a4.55 4.55 0 0 0-1 .35 1.48 1.48 0 0 0-.49.43 2.07 2.07 0 0 0-.27.78 10.37 10.37 0 0 0-.09 1.61zm11.47 0a11.5 11.5 0 0 0 .07 1.54 2 2 0 0 0 .24.77 1.28 1.28 0 0 0 .48.47 4.15 4.15 0 0 0 1 .38v.77H110v-.77a3.2 3.2 0 0 0 1.31-.56 1.44 1.44 0 0 0 .43-.87 10.31 10.31 0 0 0 .11-1.73V7.06a11.48 11.48 0 0 0-.08-1.58 1.92 1.92 0 0 0-.26-.77 1.3 1.3 0 0 0-.48-.45 5.52 5.52 0 0 0-1-.37v-.77h6.65v.77a5 5 0 0 0-1 .35 1.58 1.58 0 0 0-.49.43 2.07 2.07 0 0 0-.27.78 12.22 12.22 0 0 0-.08 1.61zm5.47-15.55h17V8.6h-1.54a14.66 14.66 0 0 0-.69-2.14 4.36 4.36 0 0 0-.71-1.2 2.49 2.49 0 0 0-.81-.58 3.88 3.88 0 0 0-1.3-.17h-2v14.11a8.35 8.35 0 0 0 .1 1.48 2.37 2.37 0 0 0 .31.87 1.5 1.5 0 0 0 .58.51 5.1 5.1 0 0 0 1.13.35v.77h-7.19v-.77c.31-.07.59-.15.83-.23a2.17 2.17 0 0 0 .59-.31 1.48 1.48 0 0 0 .38-.47 2.43 2.43 0 0 0 .23-.77 8.42 8.42 0 0 0 .09-1.43V4.51h-2a4.17 4.17 0 0 0-1.22.14 1.91 1.91 0 0 0-.89.59 4 4 0 0 0-.75 1.28 13.76 13.76 0 0 0-.64 2.08h-1.56zm21.32 19.97a12.49 12.49 0 0 1-1.85-.09 16.09 16.09 0 0 1-1.74-.37h-.21V19.7h1.59l.06.21a2.52 2.52 0 0 0 .79 1.34 2.31 2.31 0 0 0 1.44.39 3.51 3.51 0 0 0 .72-.07 1.69 1.69 0 0 0 .58-.24 1 1 0 0 0 .38-.42 1.43 1.43 0 0 0 .15-.7 1.46 1.46 0 0 0-.18-.77 2 2 0 0 0-.6-.55 11.07 11.07 0 0 0-1.6-.77 10.5 10.5 0 0 1-1.66-.85 3.49 3.49 0 0 1-1-1 2.66 2.66 0 0 1-.4-1.44 2.9 2.9 0 0 1 .55-1.75 3.34 3.34 0 0 1 1.56-1.12 6.33 6.33 0 0 1 2.28-.38 13.16 13.16 0 0 1 1.44.08c.46 0 1 .14 1.74.28l.23.05v2.78h-1.55l-.07-.19a3.28 3.28 0 0 0-.52-1 1.53 1.53 0 0 0-.64-.45 2.76 2.76 0 0 0-.93-.14 2 2 0 0 0-1.24.35 1.09 1.09 0 0 0-.41.91 1.26 1.26 0 0 0 .16.69 1.86 1.86 0 0 0 .57.54 11.41 11.41 0 0 0 1.52.74 12.54 12.54 0 0 1 1.79.92 3.44 3.44 0 0 1 1 1 2.54 2.54 0 0 1 .4 1.45 3.57 3.57 0 0 1-.33 1.6 2.86 2.86 0 0 1-.93 1.08 4.14 4.14 0 0 1-1.39.59 8.23 8.23 0 0 1-1.7.23z"/><path d="M36.79 24.9c1.42 0 1.08-1.44 1.08-1.44s-.61-1.28 2.08-1.28c4.5 0 2.76.52 2.76 2.29s-2.17 6-6.54 5.53l-1.4-.15v5.64c5.67-1.72 9.35-7 10.29-8.94 1.13-2.33 2.18-4.7 10.81-9.75 4.17-2.44 7.48-2.1 9.78-1.11V0L34.77 8.06v16.67a18.17 18.17 0 0 0 2.02.17zm26.53 23.23c-3.44 4.34-11.48-.24-14.42-1.36s-2.74 1.65-4.81 1.86c-1.18.13-.68-1.82 0-3.52a21.45 21.45 0 0 1-9.29 3.18V58l30.85 8V49.28c-1.04-.9-1.96-1.49-2.33-1.15zM45.1 42.72v-.06l-.1.06zm-10.33 1.17v2.4a10.93 10.93 0 0 0 4.92-2.62c-1.31.1-2.93.18-4.92.22z" fill="#119452"/><path class="cls-3" d="M22.72 32.56c0 1.71 1.9 3.44 8.16 3.48V29.5c-1.19-.09-2.4-.16-3.54-.18-3.6-.07-4.62 2.24-4.62 3.24z"/><path class="cls-3" d="M23 46.82c-.42-.11-.71-.22-.62-.54s.52-.28 1.15-.19a38.45 38.45 0 0 0 7.37.73v-3c-8.86-.44-14.06-4.52-14.53-9.41-.61-6.36 3.84-10.35 11.2-10.35 1.15 0 2.27.07 3.33.17V8.06L0 0v66l30.88-8v-9.62A29.67 29.67 0 0 1 23 46.82z"/><path class="cls-1" d="M81.52 33.75a2.1 2.1 0 0 0 0 .32.3.3 0 0 0 .06.15.27.27 0 0 0 .11.1.74.74 0 0 0 .23.06v.23h-1.84v-.23a.66.66 0 0 0 .2-.07.23.23 0 0 0 .11-.11.48.48 0 0 0 0-.18 2.1 2.1 0 0 0 0-.27v-3a2.1 2.1 0 0 0 0-.27.48.48 0 0 0 0-.18.29.29 0 0 0-.11-.11.71.71 0 0 0-.21-.08v-.21h2a2.2 2.2 0 0 1 1.3.32 1.09 1.09 0 0 1 .44 1 1.54 1.54 0 0 1-.2.79 1.28 1.28 0 0 1-.59.51 2.3 2.3 0 0 1-1 .18h-.55zm0-1.49h.3a1.39 1.39 0 0 0 .55-.1.67.67 0 0 0 .3-.32 1.67 1.67 0 0 0 0-1.14.61.61 0 0 0-.29-.3 1.16 1.16 0 0 0-.49-.09h-.37zm4.68-.58a1.6 1.6 0 0 1 .51-.42 1.27 1.27 0 0 1 .58-.14 2.28 2.28 0 0 1 .44.05v1h-.62a.82.82 0 0 0-.16-.31.32.32 0 0 0-.25-.1.38.38 0 0 0-.17 0 .7.7 0 0 0-.17.13.58.58 0 0 0-.11.18 1.36 1.36 0 0 0 0 .17 1.94 1.94 0 0 0 0 .27v1.1a4.17 4.17 0 0 0 0 .46.41.41 0 0 0 .1.21.45.45 0 0 0 .24.1v.23h-1.7v-.23a.54.54 0 0 0 .23-.11.41.41 0 0 0 .09-.2 4 4 0 0 0 0-.45V32.2a3.78 3.78 0 0 0 0-.38.45.45 0 0 0 0-.19.31.31 0 0 0-.1-.13.83.83 0 0 0-.23-.08v-.23h1.38zm3.93 2.99a2 2 0 0 1-.88-.18 1.31 1.31 0 0 1-.57-.57 2.09 2.09 0 0 1-.21-1 2.44 2.44 0 0 1 .13-.8 1.42 1.42 0 0 1 .36-.55 1.36 1.36 0 0 1 .54-.33 2.15 2.15 0 0 1 .68-.11 1.68 1.68 0 0 1 1.26.44 1.78 1.78 0 0 1 .43 1.29 2.19 2.19 0 0 1-.21 1 1.34 1.34 0 0 1-.6.6 2.06 2.06 0 0 1-.93.21zm-.61-1.82a2.72 2.72 0 0 0 .17 1.09.51.51 0 0 0 .49.37.48.48 0 0 0 .31-.1.65.65 0 0 0 .19-.26 1.58 1.58 0 0 0 .11-.43 4.56 4.56 0 0 0 0-.55 3.06 3.06 0 0 0-.16-1.11.54.54 0 0 0-.49-.37.5.5 0 0 0-.38.15.94.94 0 0 0-.2.45 3.16 3.16 0 0 0-.04.76zm4.53 1.49A2.77 2.77 0 0 1 94 35a1.4 1.4 0 0 1-.24.49 1.53 1.53 0 0 1-.47.38 3.66 3.66 0 0 1-.59.24l-.17-.4a1.41 1.41 0 0 0 .34-.19.72.72 0 0 0 .13-.22 1.53 1.53 0 0 0 0-.41V32a2.1 2.1 0 0 0 0-.27.34.34 0 0 0-.06-.16.23.23 0 0 0-.12-.1l-.19-.06v-.23h1.43zm0-4.53v.85h-.94v-.85zM98.19 34a2.13 2.13 0 0 1-.69.53 1.84 1.84 0 0 1-.8.16 1.56 1.56 0 0 1-1.2-.44 1.84 1.84 0 0 1-.41-1.31 2.06 2.06 0 0 1 .21-1 1.42 1.42 0 0 1 .59-.62 2 2 0 0 1 1.44-.13 1.12 1.12 0 0 1 .41.2 1 1 0 0 1 .27.31 1.59 1.59 0 0 1 .2.5 2.77 2.77 0 0 1 .07.69H96.1a1.52 1.52 0 0 0 .22.92.77.77 0 0 0 .67.29 1.19 1.19 0 0 0 .47-.09 1.62 1.62 0 0 0 .45-.35zm-.93-1.44a2.14 2.14 0 0 0-.13-.79.44.44 0 0 0-.41-.26.48.48 0 0 0-.42.27 1.85 1.85 0 0 0-.19.78zm4.58 1.17l.26.32a2.16 2.16 0 0 1-.65.47 1.58 1.58 0 0 1-.69.15 1.45 1.45 0 0 1-1.14-.44 1.88 1.88 0 0 1-.39-1.23 2.15 2.15 0 0 1 .21-1 1.48 1.48 0 0 1 .62-.62 1.88 1.88 0 0 1 .93-.22 5.09 5.09 0 0 1 .55 0 5 5 0 0 1 .51.11v.83h-.68a1.27 1.27 0 0 0-.16-.47.34.34 0 0 0-.3-.15.44.44 0 0 0-.24.07.48.48 0 0 0-.2.22 1.21 1.21 0 0 0-.14.42 3.15 3.15 0 0 0 0 .67 2.73 2.73 0 0 0 .07.68.8.8 0 0 0 .25.42.63.63 0 0 0 .44.15.81.81 0 0 0 .38-.08 1.85 1.85 0 0 0 .37-.3zm3.57.47a2.32 2.32 0 0 1-.55.36 1.35 1.35 0 0 1-.52.11 1 1 0 0 1-.77-.28 1.22 1.22 0 0 1-.26-.84v-1.93h-.43v-.24a.8.8 0 0 0 .31-.1.49.49 0 0 0 .16-.19 1.2 1.2 0 0 0 .09-.3v-.46h.82v.86h1v.43h-1v1.56a2.66 2.66 0 0 0 0 .57.49.49 0 0 0 .12.28.28.28 0 0 0 .21.08h.18L105 34l.17-.13zm-23.89 9.64a1.55 1.55 0 0 0 0 .22.4.4 0 0 0 0 .17.24.24 0 0 0 .06.11.27.27 0 0 0 .1.08l.17.06v.22h-1.77v-.22a1 1 0 0 0 .2-.08.23.23 0 0 0 .11-.11.48.48 0 0 0 0-.18 2.1 2.1 0 0 0 0-.27v-3a2.1 2.1 0 0 0 0-.27.48.48 0 0 0 0-.18.29.29 0 0 0-.11-.11 1.17 1.17 0 0 0-.21-.08V40h1.81v.23a1.17 1.17 0 0 0-.21.08.52.52 0 0 0-.1.11.5.5 0 0 0 0 .16v.29zm5.03.86h-1.67v-.22a.45.45 0 0 0 .22-.12.37.37 0 0 0 .08-.2 2.45 2.45 0 0 0 0-.45v-1.32a.93.93 0 0 0 0-.26.43.43 0 0 0-.08-.13l-.1-.15a.24.24 0 0 0-.11-.06.37.37 0 0 0-.16 0 .59.59 0 0 0-.27.08.83.83 0 0 0-.24.22.59.59 0 0 0-.09.31v1.33a2.51 2.51 0 0 0 0 .45.37.37 0 0 0 .08.2.45.45 0 0 0 .23.12v.22H82.8v-.22a.45.45 0 0 0 .23-.12.53.53 0 0 0 .09-.2 4 4 0 0 0 0-.45v-1.82a.78.78 0 0 0 0-.19.29.29 0 0 0-.1-.12.67.67 0 0 0-.23-.08v-.24h1.38l-.06.5a3.77 3.77 0 0 1 .37-.3 1.54 1.54 0 0 1 .34-.17 1.16 1.16 0 0 1 .38-.06 1.05 1.05 0 0 1 .46.08.72.72 0 0 1 .31.23 1.09 1.09 0 0 1 .16.38 2.7 2.7 0 0 1 0 .52v1.27a2.53 2.53 0 0 0 0 .28 1.06 1.06 0 0 0 0 .21.53.53 0 0 0 .06.13s.06.06.1.09l.16.06zm3.99-1a3.78 3.78 0 0 0 0 .38.36.36 0 0 0 0 .19.23.23 0 0 0 .1.12.59.59 0 0 0 .23.08v.23h-1.36v-.49a2 2 0 0 1-.52.39 1.23 1.23 0 0 1-.53.14 1.1 1.1 0 0 1-.94-.43 2.21 2.21 0 0 1-.31-1.3 2.27 2.27 0 0 1 .19-1 1.33 1.33 0 0 1 .56-.61 1.94 1.94 0 0 1 .91-.2h.29a3.34 3.34 0 0 1 .35.08v-.81a1 1 0 0 0 0-.23.34.34 0 0 0-.1-.13.93.93 0 0 0-.24-.08v-.23l1-.05h.43zm-1-1.29a1.11 1.11 0 0 0-.14-.62.53.53 0 0 0-.8 0 .88.88 0 0 0-.23.44 2.34 2.34 0 0 0-.08.69 2.58 2.58 0 0 0 .15 1 .48.48 0 0 0 .46.34.66.66 0 0 0 .64-.66zm2.16 2.07a.49.49 0 0 0 .24-.12.4.4 0 0 0 .08-.2 2.45 2.45 0 0 0 0-.45v-1.6a2.18 2.18 0 0 0 0-.28.34.34 0 0 0-.06-.16.4.4 0 0 0-.12-.1.74.74 0 0 0-.19 0v-.24H93v2.46a2.36 2.36 0 0 0 0 .29v.27a.3.3 0 0 0 .14.15l.16.06v.22h-1.6zM93 39.9v.85h-.94v-.85zm3.39 4.35a1.86 1.86 0 0 1-.55.4 1.25 1.25 0 0 1-.57.13 1.13 1.13 0 0 1-.51-.11.77.77 0 0 1-.34-.3.94.94 0 0 1-.11-.45.9.9 0 0 1 .5-.8 3.7 3.7 0 0 1 1.51-.36v-.33a1.36 1.36 0 0 0-.07-.5.52.52 0 0 0-.19-.24.45.45 0 0 0-.27-.07.72.72 0 0 0-.27 0 .53.53 0 0 0-.21.21 1.27 1.27 0 0 0-.14.43h-.65v-.63l.53-.22.41-.12a2 2 0 0 1 .37-.07 1.77 1.77 0 0 1 .32 0 1.59 1.59 0 0 1 .67.11.74.74 0 0 1 .38.36 1.56 1.56 0 0 1 .12.68v1.35a3.33 3.33 0 0 0 0 .35 1.64 1.64 0 0 0 0 .18.44.44 0 0 0 .06.1l.08.06.19.06v.22h-1.29zm-.11-1.17a1.29 1.29 0 0 0-.79.2.6.6 0 0 0-.26.54.41.41 0 0 0 .44.44.53.53 0 0 0 .3-.09.64.64 0 0 0 .31-.52zm5.92 1.62h-1.67v-.22a.45.45 0 0 0 .22-.12.37.37 0 0 0 .08-.2 2.45 2.45 0 0 0 0-.45v-1.32a.93.93 0 0 0 0-.26.43.43 0 0 0-.06-.17l-.09-.11a.24.24 0 0 0-.11-.06.37.37 0 0 0-.16 0 .59.59 0 0 0-.27.08.83.83 0 0 0-.24.22.59.59 0 0 0-.09.31v1.33a2.51 2.51 0 0 0 0 .45.37.37 0 0 0 .08.2.45.45 0 0 0 .23.12v.22h-1.67v-.22a.45.45 0 0 0 .23-.12.53.53 0 0 0 .09-.2 4 4 0 0 0 0-.45v-1.82a.78.78 0 0 0 0-.19.29.29 0 0 0-.1-.12.67.67 0 0 0-.23-.08v-.24h1.38l-.06.5c.15-.13.27-.22.38-.3a1.54 1.54 0 0 1 .34-.17 1.15 1.15 0 0 1 .37-.06 1.07 1.07 0 0 1 .47.08.72.72 0 0 1 .31.23 1.09 1.09 0 0 1 .16.38 2.7 2.7 0 0 1 0 .52v1.27a2.53 2.53 0 0 0 0 .28 1.06 1.06 0 0 0 0 .21.32.32 0 0 0 .06.13s.06.06.1.09l.16.06zm-20.68 9.23a1.48 1.48 0 0 0 0 .22.4.4 0 0 0 0 .17.2.2 0 0 0 .06.11.27.27 0 0 0 .1.08l.17.06v.22h-1.77v-.22a1 1 0 0 0 .2-.08.2.2 0 0 0 .11-.11.39.39 0 0 0 0-.18 2.1 2.1 0 0 0 0-.27V51a2.1 2.1 0 0 0 0-.27.48.48 0 0 0 0-.18.38.38 0 0 0-.11-.11 1.17 1.17 0 0 0-.21-.08v-.22h1.81v.22l-.21.09a.32.32 0 0 0-.1.1.6.6 0 0 0 0 .16v.3zm5.14.86H85v-.22a.35.35 0 0 0 .22-.12.34.34 0 0 0 .09-.2 4 4 0 0 0 0-.45v-1.58l-.06-.17a.45.45 0 0 0-.09-.1.26.26 0 0 0-.11-.07h-.16a.56.56 0 0 0-.27.08.59.59 0 0 0-.24.23.47.47 0 0 0-.1.3v1.31a4 4 0 0 0 0 .45.34.34 0 0 0 .09.2.35.35 0 0 0 .22.12v.22h-1.68v-.22a.49.49 0 0 0 .23-.12.37.37 0 0 0 .08-.2 2.45 2.45 0 0 0 0-.45V52a.53.53 0 0 0 0-.2.23.23 0 0 0-.1-.12.59.59 0 0 0-.23-.08v-.24h1.43v.49l.38-.3a2.16 2.16 0 0 1 .34-.17 1.15 1.15 0 0 1 .37-.06 1.24 1.24 0 0 1 .47.08.7.7 0 0 1 .3.24 1 1 0 0 1 .17.38 2.62 2.62 0 0 1 0 .52v1.75a.23.23 0 0 0 .06.13.18.18 0 0 0 .1.09l.16.06zm1.34-.93a.93.93 0 0 0 .27.47.65.65 0 0 0 .47.16.58.58 0 0 0 .4-.12.44.44 0 0 0 .13-.34.48.48 0 0 0-.06-.24.74.74 0 0 0-.2-.19 3.44 3.44 0 0 0-.48-.24c-.13 0-.24-.12-.36-.18a1.63 1.63 0 0 1-.29-.23.87.87 0 0 1-.19-.28.77.77 0 0 1-.08-.34.84.84 0 0 1 .18-.54 1.11 1.11 0 0 1 .52-.35 2.2 2.2 0 0 1 .76-.12h.49a4.85 4.85 0 0 1 .62.09v.8h-.45a1.33 1.33 0 0 0-.18-.34.48.48 0 0 0-.21-.17.7.7 0 0 0-.27 0 .57.57 0 0 0-.36.1.35.35 0 0 0-.13.29.48.48 0 0 0 0 .22.53.53 0 0 0 .18.19 3.72 3.72 0 0 0 .48.23 3 3 0 0 1 .52.28 1 1 0 0 1 .31.34.84.84 0 0 1 .11.45 1.06 1.06 0 0 1-.1.48 1 1 0 0 1-.29.33 1.54 1.54 0 0 1-.45.2 2.49 2.49 0 0 1-.57.06 5.58 5.58 0 0 1-1.27-.16v-.83zm5.55.52a2.78 2.78 0 0 1-.55.37 1.35 1.35 0 0 1-.53.1 1 1 0 0 1-.76-.28 1.19 1.19 0 0 1-.26-.84v-1.92H91v-.24a.85.85 0 0 0 .31-.11.4.4 0 0 0 .16-.18 1.6 1.6 0 0 0 .08-.3 2.82 2.82 0 0 0 .05-.47h.83v.86h1v.44h-1v1.55a4.1 4.1 0 0 0 0 .58.57.57 0 0 0 .13.27.27.27 0 0 0 .21.09h.17a.52.52 0 0 0 .16-.06.68.68 0 0 0 .18-.13zm.75.19a.45.45 0 0 0 .23-.12.46.46 0 0 0 .09-.2 4 4 0 0 0 0-.45v-1.6a1.76 1.76 0 0 0 0-.27.38.38 0 0 0-.06-.17.24.24 0 0 0-.11-.09.8.8 0 0 0-.2-.06v-.24h1.43v2.73a.63.63 0 0 0 0 .16.3.3 0 0 0 0 .1.56.56 0 0 0 0 .08l.09.07.16.06v.22H94.3zM95.61 50v.84h-1V50zm3.59 4.38a2.78 2.78 0 0 1-.55.37 1.35 1.35 0 0 1-.53.1 1 1 0 0 1-.77-.28 1.24 1.24 0 0 1-.25-.84v-1.92h-.43v-.24a.85.85 0 0 0 .31-.11.4.4 0 0 0 .16-.18 1.6 1.6 0 0 0 .08-.3 2.82 2.82 0 0 0 0-.47h.83v.86h1v.44h-1v1.55a4.1 4.1 0 0 0 0 .58.57.57 0 0 0 .13.27.27.27 0 0 0 .21.09h.17a.52.52 0 0 0 .16-.06.68.68 0 0 0 .18-.13zm.67-3.01h1.35v1.92a3.79 3.79 0 0 0 0 .52.72.72 0 0 0 .08.29.32.32 0 0 0 .14.16.43.43 0 0 0 .21.05.56.56 0 0 0 .27-.08.64.64 0 0 0 .24-.22.52.52 0 0 0 .1-.31v-1.33a3.56 3.56 0 0 0 0-.37.61.61 0 0 0 0-.19.27.27 0 0 0-.09-.12.77.77 0 0 0-.2-.09v-.23h1.34v2.42a3.78 3.78 0 0 0 0 .38.69.69 0 0 0 0 .19.23.23 0 0 0 .1.12.51.51 0 0 0 .23.08v.23h-1.35v-.5a2.21 2.21 0 0 1-.57.41 1.15 1.15 0 0 1-.5.12 1.12 1.12 0 0 1-.59-.13.76.76 0 0 1-.31-.41 1.84 1.84 0 0 1-.1-.68v-1.23a2.45 2.45 0 0 0 0-.3v-.26a.22.22 0 0 0 0-.08l-.09-.07-.16-.06zm7.01 3.01a2.78 2.78 0 0 1-.55.37 1.35 1.35 0 0 1-.53.1 1 1 0 0 1-.76-.28 1.19 1.19 0 0 1-.26-.84v-1.92h-.43v-.24a.78.78 0 0 0 .31-.11.4.4 0 0 0 .16-.18 2.82 2.82 0 0 0 .09-.3v-.47h.82v.86h1v.44h-1v1.55a2.83 2.83 0 0 0 0 .58.48.48 0 0 0 .12.27.29.29 0 0 0 .21.09h.17a.58.58 0 0 0 .17-.06.86.86 0 0 0 .17-.13zm3.8-.21a2.09 2.09 0 0 1-.69.52 1.84 1.84 0 0 1-.8.16 1.59 1.59 0 0 1-1.21-.44 1.86 1.86 0 0 1-.4-1.3 2.07 2.07 0 0 1 .21-1 1.39 1.39 0 0 1 .59-.61 1.8 1.8 0 0 1 .89-.21 1.84 1.84 0 0 1 .55.07 1.36 1.36 0 0 1 .4.2 1 1 0 0 1 .28.32 1.53 1.53 0 0 1 .2.49 2.77 2.77 0 0 1 .07.69h-2.19a1.57 1.57 0 0 0 .23.92.76.76 0 0 0 .66.3 1.06 1.06 0 0 0 .48-.1 1.45 1.45 0 0 0 .45-.35zm-.93-1.45a1.87 1.87 0 0 0-.14-.78.4.4 0 0 0-.4-.26.47.47 0 0 0-.42.27 1.8 1.8 0 0 0-.19.77zm2.25 1.14a.86.86 0 0 0 .26.47.68.68 0 0 0 .48.16.57.57 0 0 0 .39-.12.41.41 0 0 0 .13-.34.48.48 0 0 0-.06-.24.61.61 0 0 0-.2-.19 3.81 3.81 0 0 0-.47-.24 3 3 0 0 1-.36-.18 1.34 1.34 0 0 1-.29-.23.9.9 0 0 1-.2-.28.77.77 0 0 1-.07-.34.84.84 0 0 1 .18-.54 1.13 1.13 0 0 1 .51-.35 2.24 2.24 0 0 1 .76-.12h.49a5.23 5.23 0 0 1 .63.09v.8h-.46a1.34 1.34 0 0 0-.17-.34.55.55 0 0 0-.21-.17.77.77 0 0 0-.27 0 .6.6 0 0 0-.37.1.35.35 0 0 0-.13.29.48.48 0 0 0 0 .22.5.5 0 0 0 .17.19 3.72 3.72 0 0 0 .48.23 3.19 3.19 0 0 1 .53.28 1.1 1.1 0 0 1 .31.34.94.94 0 0 1 .11.45 1.06 1.06 0 0 1-.11.48.91.91 0 0 1-.29.33 1.37 1.37 0 0 1-.44.2 2.65 2.65 0 0 1-.58.06 5.43 5.43 0 0 1-1.26-.16v-.83zm6.81.99a2 2 0 0 1-.88-.18 1.26 1.26 0 0 1-.57-.57 2.07 2.07 0 0 1-.21-1 2.13 2.13 0 0 1 .13-.8 1.45 1.45 0 0 1 .35-.56 1.4 1.4 0 0 1 .55-.33 2.11 2.11 0 0 1 .68-.1 1.68 1.68 0 0 1 1.26.44 1.79 1.79 0 0 1 .42 1.29 2.15 2.15 0 0 1-.21 1 1.34 1.34 0 0 1-.6.6 1.92 1.92 0 0 1-.92.21zM118.2 53a2.8 2.8 0 0 0 .16 1.1.54.54 0 0 0 .5.36.49.49 0 0 0 .3-.09.64.64 0 0 0 .2-.27 1.62 1.62 0 0 0 .1-.42 3.2 3.2 0 0 0 0-.56 2.77 2.77 0 0 0-.17-1.1.52.52 0 0 0-.48-.37.5.5 0 0 0-.38.15 1 1 0 0 0-.21.44 4 4 0 0 0-.02.76zm3.09 1.57a.82.82 0 0 0 .23-.11.35.35 0 0 0 .09-.16 1.74 1.74 0 0 0 0-.37v-2.12h-.42v-.24l.23-.06a.2.2 0 0 0 .1-.08.35.35 0 0 0 .07-.12.66.66 0 0 0 0-.21 1.26 1.26 0 0 1 .47-.94 1.82 1.82 0 0 1 1.14-.32 2.73 2.73 0 0 1 .53 0v.7h-.47a.92.92 0 0 0-.13-.28.26.26 0 0 0-.18-.09.29.29 0 0 0-.23.1.66.66 0 0 0-.11.28 3.3 3.3 0 0 0 0 .51v.26h.67v.44h-.67v2.12a1.48 1.48 0 0 0 0 .36.29.29 0 0 0 .1.17.49.49 0 0 0 .25.11v.22h-1.72zM81.06 64.89v-.23l.23-.06a.28.28 0 0 0 .12-.12.42.42 0 0 0 .06-.18v-3.72h-.27a.85.85 0 0 0-.32.05.45.45 0 0 0-.19.15.81.81 0 0 0-.14.28c0 .12-.07.23-.1.33H80v-1.21h4v1.21h-.47c0-.16-.08-.27-.11-.35a.75.75 0 0 0-.08-.18.73.73 0 0 0-.1-.13.48.48 0 0 0-.11-.09h-.62V64a2.1 2.1 0 0 0 0 .28.57.57 0 0 0 0 .15.36.36 0 0 0 .07.1l.11.06a.74.74 0 0 0 .19 0v.23zm6.31-.63a2.44 2.44 0 0 1-.7.53 2 2 0 0 1-.79.15 1.54 1.54 0 0 1-1.21-.44 1.86 1.86 0 0 1-.41-1.3 2.07 2.07 0 0 1 .21-1 1.45 1.45 0 0 1 .59-.61 1.83 1.83 0 0 1 .89-.21 1.79 1.79 0 0 1 .55.07 1.11 1.11 0 0 1 .69.52 1.52 1.52 0 0 1 .19.49 3.38 3.38 0 0 1 .08.7h-2.19a1.62 1.62 0 0 0 .22.92.8.8 0 0 0 .67.29 1 1 0 0 0 .47-.1 1.73 1.73 0 0 0 .46-.34zm-.93-1.45a2 2 0 0 0-.14-.81.43.43 0 0 0-.4-.26.46.46 0 0 0-.42.27 1.7 1.7 0 0 0-.19.77zM91.08 64l.27.32a2.44 2.44 0 0 1-.66.48 1.69 1.69 0 0 1-.68.14 1.46 1.46 0 0 1-1.15-.44 1.87 1.87 0 0 1-.39-1.28 2 2 0 0 1 .22-1 1.4 1.4 0 0 1 .62-.63 2 2 0 0 1 .92-.21 3.52 3.52 0 0 1 .56 0 3.36 3.36 0 0 1 .5.11v.83h-.68a1.23 1.23 0 0 0-.15-.47.34.34 0 0 0-.3-.15.54.54 0 0 0-.25.06.72.72 0 0 0-.2.22 1.67 1.67 0 0 0-.14.43 3.86 3.86 0 0 0 0 .66 2.59 2.59 0 0 0 .08.68.85.85 0 0 0 .24.43.64.64 0 0 0 .45.15.78.78 0 0 0 .37-.09 1.59 1.59 0 0 0 .37-.24zm2.52-2.08a2.5 2.5 0 0 1 .56-.39 1.13 1.13 0 0 1 .51-.12 1.06 1.06 0 0 1 .58.14.76.76 0 0 1 .3.4 1.88 1.88 0 0 1 .1.68v1.76a.31.31 0 0 0 .06.13.21.21 0 0 0 .1.08l.16.06v.23h-1.65v-.23a.45.45 0 0 0 .23-.11.52.52 0 0 0 .08-.2 4.32 4.32 0 0 0 0-.46v-1.42a.92.92 0 0 0-.08-.3.42.42 0 0 0-.13-.16.52.52 0 0 0-.23 0 .59.59 0 0 0-.27.08.73.73 0 0 0-.24.22.58.58 0 0 0-.09.3v1.64a.63.63 0 0 0 0 .16.17.17 0 0 0 0 .1.2.2 0 0 0 0 .09l.09.06.15.06v.23h-1.59v-.23l.16-.06a.22.22 0 0 0 .09-.07.39.39 0 0 0 .06-.11.5.5 0 0 0 0-.19 3.13 3.13 0 0 0 0-.34v-3.19a1.4 1.4 0 0 0 0-.23.44.44 0 0 0 0-.15.22.22 0 0 0-.1-.09.56.56 0 0 0-.21-.07V60h1.44v2zm7.08 2.97H99v-.23a.41.41 0 0 0 .22-.11.53.53 0 0 0 .09-.2 4.32 4.32 0 0 0 0-.46v-1.55a.59.59 0 0 0-.07-.16.24.24 0 0 0-.08-.11L99 62h-.16a.63.63 0 0 0-.28.08.72.72 0 0 0-.23.23.47.47 0 0 0-.1.3v1.33a4 4 0 0 0 0 .45.4.4 0 0 0 .08.21.49.49 0 0 0 .23.11v.23h-1.61v-.23a.45.45 0 0 0 .23-.12.31.31 0 0 0 .09-.2 4 4 0 0 0 0-.45v-1.46a3.78 3.78 0 0 0 0-.38.54.54 0 0 0 0-.2.23.23 0 0 0-.1-.12.59.59 0 0 0-.23-.08v-.23h1.38v.5a3.51 3.51 0 0 1 .38-.29 1.52 1.52 0 0 1 .33-.18 1.21 1.21 0 0 1 .38-.06 1.28 1.28 0 0 1 .47.08.78.78 0 0 1 .3.24 1 1 0 0 1 .17.38 2.62 2.62 0 0 1 0 .52v1.55a.66.66 0 0 0 0 .21.5.5 0 0 0 0 .13.31.31 0 0 0 .11.08l.15.06zm2.51.05a2 2 0 0 1-.88-.18 1.23 1.23 0 0 1-.57-.56 2.15 2.15 0 0 1-.21-1 2.39 2.39 0 0 1 .13-.8 1.54 1.54 0 0 1 .36-.56 1.63 1.63 0 0 1 .54-.33 2.48 2.48 0 0 1 .68-.1 1.68 1.68 0 0 1 1.26.44 1.75 1.75 0 0 1 .43 1.29 2.15 2.15 0 0 1-.21 1 1.34 1.34 0 0 1-.6.6 1.93 1.93 0 0 1-.93.2zm-.61-1.82a2.77 2.77 0 0 0 .17 1.1.51.51 0 0 0 .49.36.54.54 0 0 0 .31-.09.62.62 0 0 0 .19-.27 1.61 1.61 0 0 0 .11-.42 4.73 4.73 0 0 0 0-.56 3 3 0 0 0-.16-1.1.53.53 0 0 0-.49-.37.5.5 0 0 0-.38.15.9.9 0 0 0-.2.44 3.22 3.22 0 0 0-.04.76zm4.53.77a4 4 0 0 0 0 .45.34.34 0 0 0 .09.2.44.44 0 0 0 .24.12v.23h-1.69v-.23l.16-.06a.22.22 0 0 0 .09-.07l.06-.11v-3.89a.44.44 0 0 0 0-.15.24.24 0 0 0-.11-.09.56.56 0 0 0-.21-.07V60h1.43zm2.74 1.05a2 2 0 0 1-.88-.18 1.23 1.23 0 0 1-.57-.56 2.5 2.5 0 0 1-.08-1.8 1.52 1.52 0 0 1 .35-.56 1.68 1.68 0 0 1 .55-.33 2.48 2.48 0 0 1 .68-.1 1.68 1.68 0 0 1 1.26.44 1.79 1.79 0 0 1 .42 1.29 2.15 2.15 0 0 1-.21 1 1.34 1.34 0 0 1-.6.6 1.92 1.92 0 0 1-.92.2zm-.61-1.82a2.8 2.8 0 0 0 .16 1.1.54.54 0 0 0 .5.36.49.49 0 0 0 .3-.09.64.64 0 0 0 .2-.27 1.62 1.62 0 0 0 .1-.42 3.2 3.2 0 0 0 0-.56 2.77 2.77 0 0 0-.17-1.1.52.52 0 0 0-.48-.37.5.5 0 0 0-.38.15 1 1 0 0 0-.21.44 4 4 0 0 0-.02.76zm6.64-1.19l-.59-.07a.72.72 0 0 1 .16.26 1.27 1.27 0 0 1 .06.41 1.14 1.14 0 0 1-.36.91 1.64 1.64 0 0 1-1.07.31 1.78 1.78 0 0 1-.56-.07.48.48 0 0 0-.17.34.25.25 0 0 0 0 .16.27.27 0 0 0 .15.08 1.07 1.07 0 0 0 .29 0h.86a1.38 1.38 0 0 1 .86.23.82.82 0 0 1 .29.69 1 1 0 0 1-.21.64 1.25 1.25 0 0 1-.6.4 2.6 2.6 0 0 1-.93.14h-.7a2.25 2.25 0 0 1-.54-.13.77.77 0 0 1-.35-.25.63.63 0 0 1-.12-.4.6.6 0 0 1 .12-.36 1 1 0 0 1 .35-.29.64.64 0 0 1-.21-.23.71.71 0 0 1-.07-.34.82.82 0 0 1 .07-.3.87.87 0 0 1 .18-.26 2.77 2.77 0 0 1 .29-.25 1.05 1.05 0 0 1-.41-.4 1.16 1.16 0 0 1-.13-.58 1.2 1.2 0 0 1 .11-.55 1 1 0 0 1 .32-.37 1.19 1.19 0 0 1 .47-.21 2.3 2.3 0 0 1 .6-.07h1.81zm-2.45 3.18a.76.76 0 0 0-.19.21.53.53 0 0 0-.06.26.39.39 0 0 0 .22.37 1.45 1.45 0 0 0 .68.12 1.19 1.19 0 0 0 .66-.15.5.5 0 0 0 .18-.61.31.31 0 0 0-.16-.13.77.77 0 0 0-.34-.06h-1zm.13-2.54a1.36 1.36 0 0 0 .12.65.41.41 0 0 0 .38.21.42.42 0 0 0 .37-.19 1.22 1.22 0 0 0 .12-.6 1.39 1.39 0 0 0-.12-.65.4.4 0 0 0-.37-.22.41.41 0 0 0-.38.19 1.24 1.24 0 0 0-.12.61zm5.21 2.43a5 5 0 0 1-.42.79 1.31 1.31 0 0 1-.43.42 1 1 0 0 1-.57.14 1.86 1.86 0 0 1-.48-.06v-.79h.39a.41.41 0 0 0 .11.22.25.25 0 0 0 .19.06.39.39 0 0 0 .23-.07 1.12 1.12 0 0 0 .24-.27 5.23 5.23 0 0 0 .33-.59h-.2l-.9-2.59-.15-.38a.67.67 0 0 0-.13-.15.49.49 0 0 0-.18-.08v-.22h1.72v.22a.45.45 0 0 0-.23.1.22.22 0 0 0-.08.18 1.37 1.37 0 0 0 .09.43l.5 1.51.55-1.32c0-.11.08-.21.1-.29a1.07 1.07 0 0 0 0-.25.35.35 0 0 0-.08-.24.39.39 0 0 0-.23-.12v-.22h1.34v.23a.48.48 0 0 0-.16.07.68.68 0 0 0-.12.12l-.13.22c0 .09-.11.23-.2.43z"/></g></g></svg>